<svg xmlns="http://www.w3.org/2000/svg" width="256" height="256" viewBox="0 0 256 256"><path fill="#f2c53e" d="M232.4 160.1l-27.6-37.2L132 17.4a2.5 2.5 0 0 0-3.6 0L71.3 94.6a8.6 8.6 0 0 0-1.8 2l-17 23.5-29 40.1a8.7 8.7 0 0 0 .1 10.4l47.1 63.6c2.4 3.2 6.8 5.2 11.5 5.2h93c4.7 0 9-2 11.3-5.2l46-63.6a8.7 8.7 0 0 0-.1-10.5zM81.6 125.6a38.7 38.7 0 0 1 6.3-17.4l10.8-16.8 28.5-43.7a1.6 1.6 0 0 1 2.8.1l26.5 43.4 11 18.1a38.6 38.6 0 0 1 5.8 18.4 37.9 37.9 0 0 1-5.5 21.4c-8.2 13.9-23.5 22.1-41 21.8-17.5-.2-32.6-8.8-40.4-23a38.1 38.1 0 0 1-4.8-22.3z"/><path fill="#deebfa" d="M83.4 127.4a40.1 40.1 0 0 1 6.2-17.5l10.6-16.7L128 49.5a1.6 1.6 0 0 1 2.8 0L156.6 93l10.8 18.1a39.4 39.4 0 0 1 5.6 18.4 38.1 38.1 0 0 1-5.4 21.3c-8 14-23 22.1-40 21.9h-.1c-17-.3-31.8-8.9-39.4-23.1a38.3 38.3 0 0 1-4.7-22.2z"/><path fill="#609fe6" d="M130.2 16.6a2.3 2.3 0 0 1 1.8.8l72.8 105.5 27.6 37.2a8.7 8.7 0 0 1 .1 10.4l-46 63.6c-2.3 3.2-6.6 5.2-11.3 5.2H81.9c-4.6-.1-8.8-2-11.2-5.2l-47.1-63.5a8.7 8.7 0 0 1-.1-10.4l29-40.1 17-23.5a8.6 8.6 0 0 1 1.8-2l57.1-77.2a2.3 2.3 0 0 1 1.8-.8m.2-16.4c-8-.1-15.3 3-19.6 8.3l-.2.3-.2.2-56.1 76a22.8 22.8 0 0 0-2.9 3.4l-17 23.5L5.5 152a22.1 22.1 0 0 0 .2 26.8l47.1 63.6c6 8.1 17.1 13.2 28.9 13.4h93.6c12.1 0 23.3-5.1 29.3-13.4l45.9-63.6a22.2 22.2 0 0 0-.2-26.9L222.9 115 150.2 9.6l-.2-.2-.2-.3C145.7 3.6 138.4.3 130.4.2z"/><path fill="#c4a44d" d="M127.5 178.9c-19.4-.3-36.1-10.2-44.8-26.4a44.3 44.3 0 0 1-5.4-25.7 45.9 45.9 0 0 1 7.1-20.2l38.4-60.4a7.7 7.7 0 0 1 6.7-3.6 7.5 7.5 0 0 1 6.6 3.8l36.6 61.6a46.4 46.4 0 0 1 6.5 21.2 45.3 45.3 0 0 1-6.2 24.7c-9.2 15.9-26.2 25.2-45.5 25zM129.3 59l-34.5 54.2a33 33 0 0 0-5.2 14.8 31.9 31.9 0 0 0 3.9 18.7c6.6 12.2 19.3 19.6 34.1 19.8s27.8-6.8 34.7-18.7a32.5 32.5 0 0 0 4.6-18 34.6 34.6 0 0 0-4.8-15.6zm3.9-6.2zm-7.7-.1z"/></svg>