<svg id="color" xmlns="http://www.w3.org/2000/svg" width="65.3" height="58.9" viewBox="0 0 65.3 58.9"><title>honey</title><path d="M60.5,32.2,49,51.8a5.3,5.3,0,0,1-4.8,2.7H21.6a5.4,5.4,0,0,1-4.8-2.8L5.6,32a5.6,5.6,0,0,1,0-5.6L17,6.9a5.7,5.7,0,0,1,4.8-2.8l22.7.2A5.5,5.5,0,0,1,49.3,7L60.5,26.7A5.4,5.4,0,0,1,60.5,32.2Z" fill="#f2c53e"/><path d="M15.5,55.4,1.6,31.2a3.8,3.8,0,0,1,.1-4L15.8,3.1a3.8,3.8,0,0,1,3.4-2h28a4,4,0,0,1,3.4,2L64.4,27.5a4.1,4.1,0,0,1,0,4L50.3,55.6a4,4,0,0,1-3.4,2l-28-.2A3.8,3.8,0,0,1,15.5,55.4ZM8.6,31.2,19,49.4a4,4,0,0,0,3.4,2h21a3.9,3.9,0,0,0,3.4-1.9L57.4,31.4a3.7,3.7,0,0,0,0-3.9L47.1,9.3a3.8,3.8,0,0,0-3.5-2H22.7a4.1,4.1,0,0,0-3.5,1.9L8.6,27.2A4.1,4.1,0,0,0,8.6,31.2Z" fill="#c4a44d"/></svg>