<svg xmlns="http://www.w3.org/2000/svg" width="130.3" height="182.6" viewBox="0 0 130.3 182.6"><title>milk</title><g style="isolation:isolate"><g id="color"><path d="M64.2,169.8h0c-42-.1-68.1-42.8-47.1-76.9L62.9,18.6a1.8,1.8,0,0,1,2.9,0l45.6,74.5C132.4,127.2,106.1,169.8,64.2,169.8Z" fill="#cbdff7"/><path d="M64.2,178h-.1c-23.2-.1-44.4-12.2-55.3-31.7a56.3,56.3,0,0,1,1.3-57.7L63,3a1.7,1.7,0,0,1,2.9,0l52.5,85.8a56.2,56.2,0,0,1,1.2,57.6C108.7,165.9,87.5,178,64.2,178ZM65.8,34.3a1.7,1.7,0,0,0-2.9,0l-38.8,63a39.5,39.5,0,0,0-1,41c8.1,14.5,23.5,23.2,41.1,23.2h.1c17.5,0,32.9-8.6,41-23.1a39.5,39.5,0,0,0-.8-41Z" fill="#96b9ed"/><g style="mix-blend-mode:color-burn"><path d="M64.2,169.8h0c-42-.1-68.1-42.8-47.1-76.9L62.9,18.6a1.8,1.8,0,0,1,2.9,0l45.6,74.5C132.4,127.2,106.1,169.8,64.2,169.8Z" fill="#cbdff7"/><path d="M64.2,178h-.1c-23.2-.1-44.4-12.2-55.3-31.7a56.3,56.3,0,0,1,1.3-57.7L63,3a1.7,1.7,0,0,1,2.9,0l52.5,85.8a56.2,56.2,0,0,1,1.2,57.6C108.7,165.9,87.5,178,64.2,178ZM65.8,34.3a1.7,1.7,0,0,0-2.9,0l-38.8,63a39.5,39.5,0,0,0-1,41c8.1,14.5,23.5,23.2,41.1,23.2h.1c17.5,0,32.9-8.6,41-23.1a39.5,39.5,0,0,0-.8-41Z" fill="#96b9ed"/></g></g></g></svg>