<svg height="436" viewBox="0 0 436 436" width="436" xmlns="http://www.w3.org/2000/svg"><path d="m5.1 4.4h426v426h-426z" fill="#533a02" stroke="#fabc28" stroke-miterlimit="10" stroke-width="9"/><path d="m341.2 255.3-59.3 102.3a5.6 5.6 0 0 1 -4.8 2.8l-118.2-.2a5.5 5.5 0 0 1 -4.8-2.7l-59-102.6a5.4 5.4 0 0 1 0-5.5l59.3-102.3a5.6 5.6 0 0 1 4.8-2.8l118.2.2a5.4 5.4 0 0 1 4.8 2.8l59 102.5a5.4 5.4 0 0 1 0 5.5z" fill="#f2c53e"/><path d="m143.3 364.7-59.9-104a17.2 17.2 0 0 1 0-17l60.2-103.9a17 17 0 0 1 14.7-8.5l120 .2a17 17 0 0 1 14.7 8.5l59.9 104.1a17 17 0 0 1 0 16.9l-60.2 103.9a16.8 16.8 0 0 1 -14.7 8.5l-120-.2a16.8 16.8 0 0 1 -14.7-8.5zm-29.9-104 44.9 78a17.1 17.1 0 0 0 14.7 8.6h90a17.1 17.1 0 0 0 14.8-8.5l45.1-77.8a17.2 17.2 0 0 0 0-17l-44.9-78a16.8 16.8 0 0 0 -14.7-8.5l-90-.2a17.1 17.1 0 0 0 -14.8 8.5l-45.1 77.9a17.2 17.2 0 0 0 0 17z" fill="#c4a44d"/><g fill="#fff"><path d="m159.5 95.2v-17.7h-18.3v17.7h-6.6v-40h6.6v16.6h18.3v-16.6h6.7v40z"/><path d="m201.1 78.4v2.5c0 8.7-4.8 14.8-13.7 14.8s-13.8-6.1-13.8-14.8v-2.5c0-8.4 4.9-14.7 13.8-14.7s13.7 6.3 13.7 14.7zm-21 .1v2.4c0 5.5 2.4 9.6 7.3 9.6s7.2-4.1 7.2-9.6v-2.4c0-5.7-2.4-9.6-7.2-9.6s-7.3 4-7.3 9.6z"/><path d="m208.1 64.2h6.4v4.3h.3c1-2 3.9-4.8 9-4.8s10.8 4 10.8 11.6v19.9h-6.5v-18.6c0-5-2.8-7.2-6.7-7.2s-6.8 3.3-6.8 7.3v18.5h-6.5z"/><path d="m241.2 81.1v-3.2c0-8.6 5.2-14.2 13.3-14.2s13.3 5.8 13.3 14.5v3h-20.2v.7c0 5.2 2.8 8.7 7.3 8.7s5.5-1.7 6.3-4.3h6.2c-.9 5-5 9.4-12.6 9.4s-13.6-5.5-13.6-14.6zm20.2-4.5c0-4.4-2.7-7.9-6.9-7.9s-6.9 3.5-6.9 7.9z"/><path d="m289.3 94.8-.8 2.1c-2.5 6.9-6 9.1-12 9.1l-3.4-.2v-5l2.3.2c3.5 0 5.2-1.2 5.9-4.2l.4-1.4-11.1-31.2h7.2l7.4 24.6h.3l7.5-24.6h6.8c-1.3 4.3-10.5 30.5-10.5 30.6z"/></g></svg>