<svg xmlns="http://www.w3.org/2000/svg"><symbol id="logo" viewBox="0 0 256 256"><path fill="#f2c53e" d="M232.4 160.1l-27.6-37.2L132 17.4a2.5 2.5 0 0 0-3.6 0L71.3 94.6a8.6 8.6 0 0 0-1.8 2l-17 23.5-29 40.1a8.7 8.7 0 0 0 .1 10.4l47.1 63.6c2.4 3.2 6.8 5.2 11.5 5.2h93c4.7 0 9-2 11.3-5.2l46-63.6a8.7 8.7 0 0 0-.1-10.5zM81.6 125.6a38.7 38.7 0 0 1 6.3-17.4l10.8-16.8 28.5-43.7a1.6 1.6 0 0 1 2.8.1l26.5 43.4 11 18.1a38.6 38.6 0 0 1 5.8 18.4 37.9 37.9 0 0 1-5.5 21.4c-8.2 13.9-23.5 22.1-41 21.8-17.5-.2-32.6-8.8-40.4-23a38.1 38.1 0 0 1-4.8-22.3z"/><path fill="#deebfa" d="M83.4 127.4a40.1 40.1 0 0 1 6.2-17.5l10.6-16.7L128 49.5a1.6 1.6 0 0 1 2.8 0L156.6 93l10.8 18.1a39.4 39.4 0 0 1 5.6 18.4 38.1 38.1 0 0 1-5.4 21.3c-8 14-23 22.1-40 21.9h-.1c-17-.3-31.8-8.9-39.4-23.1a38.3 38.3 0 0 1-4.7-22.2z"/><path fill="#609fe6" d="M130.2 16.6a2.3 2.3 0 0 1 1.8.8l72.8 105.5 27.6 37.2a8.7 8.7 0 0 1 .1 10.4l-46 63.6c-2.3 3.2-6.6 5.2-11.3 5.2H81.9c-4.6-.1-8.8-2-11.2-5.2l-47.1-63.5a8.7 8.7 0 0 1-.1-10.4l29-40.1 17-23.5a8.6 8.6 0 0 1 1.8-2l57.1-77.2a2.3 2.3 0 0 1 1.8-.8m.2-16.4c-8-.1-15.3 3-19.6 8.3l-.2.3-.2.2-56.1 76a22.8 22.8 0 0 0-2.9 3.4l-17 23.5L5.5 152a22.1 22.1 0 0 0 .2 26.8l47.1 63.6c6 8.1 17.1 13.2 28.9 13.4h93.6c12.1 0 23.3-5.1 29.3-13.4l45.9-63.6a22.2 22.2 0 0 0-.2-26.9L222.9 115 150.2 9.6l-.2-.2-.2-.3C145.7 3.6 138.4.3 130.4.2z"/><path fill="#c4a44d" d="M127.5 178.9c-19.4-.3-36.1-10.2-44.8-26.4a44.3 44.3 0 0 1-5.4-25.7 45.9 45.9 0 0 1 7.1-20.2l38.4-60.4a7.7 7.7 0 0 1 6.7-3.6 7.5 7.5 0 0 1 6.6 3.8l36.6 61.6a46.4 46.4 0 0 1 6.5 21.2 45.3 45.3 0 0 1-6.2 24.7c-9.2 15.9-26.2 25.2-45.5 25zM129.3 59l-34.5 54.2a33 33 0 0 0-5.2 14.8 31.9 31.9 0 0 0 3.9 18.7c6.6 12.2 19.3 19.6 34.1 19.8s27.8-6.8 34.7-18.7a32.5 32.5 0 0 0 4.6-18 34.6 34.6 0 0 0-4.8-15.6zm3.9-6.2zm-7.7-.1z"/></symbol><symbol id="full-star" viewBox="0 0 24 24"><path d="M12 6.76l1.379 4.246h4.465l-3.612 2.625 1.379 4.246L12 15.252l-3.612 2.625 1.379-4.246-3.612-2.625h4.465zm0-6.472L9.167 9.006H0l7.416 5.389-2.833 8.718L12 17.725l7.416 5.388-2.833-8.718L24 9.006h-9.167L12 .288z"/></symbol><symbol id="card" viewBox="0 0 24 24"><path d="M22 4H2a2 2 0 0 0-2 2v12a2 2 0 0 0 2 2h20a2 2 0 0 0 2-2V6a2 2 0 0 0-2-2zm0 13.5a.5.5 0 0 1-.5.5h-19a.5.5 0 0 1-.5-.5V11h20zM22 8H2V6.5a.5.5 0 0 1 .5-.5h19a.5.5 0 0 1 .5.5zm-9 6H4v-1h9zm-3 2H4v-1h6zm10-2h-3v-1h3z"/></symbol><symbol id="account" viewBox="0 0 24 24"><path d="M19 7.001A7 7 0 1 1 4.999 7 7 7 0 0 1 19 7zm-1.598 7.18A8.937 8.937 0 0 1 12 16.001a8.953 8.953 0 0 1-5.407-1.822C2.521 15.972 0 21.555 0 24h24c0-2.423-2.6-8.006-6.598-9.819z"/></symbol><symbol id="cart" viewBox="0 0 24 24"><path d="M10 19.5a1.5 1.5 0 1 1-3 0 1.5 1.5 0 0 1 3 0zm3.5-1.5a1.5 1.5 0 1 0 0 3 1.5 1.5 0 0 0 0-3zm1.336-5l1.977-7H0l2.938 7zm4.969-10l-3.432 12H3.776l.839 2h13.239l3.474-12h1.929L24 3z"/></symbol><symbol id="twitter" viewBox="0 0 24 24"><path d="M19 0H5a5 5 0 0 0-5 5v14a5 5 0 0 0 5 5h14a5 5 0 0 0 5-5V5a5 5 0 0 0-5-5zm-.139 9.237c.209 4.617-3.234 9.765-9.33 9.765a9.286 9.286 0 0 1-5.032-1.475 6.605 6.605 0 0 0 4.86-1.359 3.285 3.285 0 0 1-3.066-2.28 3.3 3.3 0 0 0 1.482-.056c-1.579-.317-2.668-1.739-2.633-3.26.442.246.949.394 1.486.411A3.289 3.289 0 0 1 5.612 6.6a9.32 9.32 0 0 0 6.766 3.43 3.286 3.286 0 0 1 5.594-2.993 6.583 6.583 0 0 0 2.086-.796 3.296 3.296 0 0 1-1.443 1.816A6.578 6.578 0 0 0 20.5 7.54a6.66 6.66 0 0 1-1.639 1.697z"/></symbol><symbol id="facebook" viewBox="0 0 24 24"><path d="M22.675 0H1.325C.593 0 0 .593 0 1.325v21.351C0 23.407.593 24 1.325 24H12.82v-9.294H9.692v-3.622h3.128V8.413c0-3.1 1.893-4.788 4.659-4.788 1.325 0 2.463.099 2.795.143v3.24l-1.918.001c-1.504 0-1.795.715-1.795 1.763v2.313h3.587l-.467 3.622h-3.12V24h6.116c.73 0 1.323-.593 1.323-1.325V1.325C24 .593 23.407 0 22.675 0z"/></symbol><symbol id="half-star" viewBox="0 0 24 24"><path d="M12 5.173l2.335 4.817 5.305.732-3.861 3.71.942 5.27L12 17.178zm0-4.586L8.332 8.155 0 9.306l6.064 5.828-1.48 8.279L12 19.446l7.416 3.966-1.48-8.279L24 9.306l-8.332-1.15L12 .587z"/></symbol><symbol id="insta" viewBox="0 0 24 24"><path fill-rule="evenodd" d="M21.231 0H2.769A2.77 2.77 0 0 0 0 2.769v18.46A2.77 2.77 0 0 0 2.769 24h18.463A2.769 2.769 0 0 0 24 21.229V2.769A2.769 2.769 0 0 0 21.231 0zM12 7.385a4.615 4.615 0 1 1 .002 9.23A4.615 4.615 0 0 1 12 7.385zm9 12.693a.923.923 0 0 1-.924.922H3.924A.923.923 0 0 1 3 20.078V10h1.897a7.56 7.56 0 0 0-.2.971c-.05.337-.081.679-.081 1.029a7.384 7.384 0 1 0 14.768 0c0-.35-.031-.692-.081-1.028a7.56 7.56 0 0 0-.2-.971H21zm0-13.98a.924.924 0 0 1-.924.923h-2.174a.923.923 0 0 1-.923-.923V3.923c0-.51.412-.923.923-.923h2.174c.511 0 .924.413.924.923z" clip-rule="evenodd"/></symbol><symbol id="magnifier" viewBox="0 0 24 24"><path d="M23.809 21.646l-6.205-6.205a9.68 9.68 0 0 0 1.857-5.711C19.461 4.365 15.096 0 9.73 0 4.365 0 0 4.365 0 9.73c0 5.366 4.365 9.73 9.73 9.73a9.678 9.678 0 0 0 5.487-1.698L21.455 24l2.354-2.354zM2.854 9.73c0-3.792 3.085-6.877 6.877-6.877s6.877 3.085 6.877 6.877-3.085 6.877-6.877 6.877A6.884 6.884 0 0 1 2.854 9.73z"/></symbol></svg>