<svg xmlns="http://www.w3.org/2000/svg"><symbol id="logo" viewBox="0 0 256 256"><path fill="#f2c53e" d="M232.4 160.1l-27.6-37.2L132 17.4a2.5 2.5 0 0 0-3.6 0L71.3 94.6a8.6 8.6 0 0 0-1.8 2l-17 23.5-29 40.1a8.7 8.7 0 0 0 .1 10.4l47.1 63.6c2.4 3.2 6.8 5.2 11.5 5.2h93c4.7 0 9-2 11.3-5.2l46-63.6a8.7 8.7 0 0 0-.1-10.5zM81.6 125.6a38.7 38.7 0 0 1 6.3-17.4l10.8-16.8 28.5-43.7a1.6 1.6 0 0 1 2.8.1l26.5 43.4 11 18.1a38.6 38.6 0 0 1 5.8 18.4 37.9 37.9 0 0 1-5.5 21.4c-8.2 13.9-23.5 22.1-41 21.8-17.5-.2-32.6-8.8-40.4-23a38.1 38.1 0 0 1-4.8-22.3z"/><path fill="#deebfa" d="M83.4 127.4a40.1 40.1 0 0 1 6.2-17.5l10.6-16.7L128 49.5a1.6 1.6 0 0 1 2.8 0L156.6 93l10.8 18.1a39.4 39.4 0 0 1 5.6 18.4 38.1 38.1 0 0 1-5.4 21.3c-8 14-23 22.1-40 21.9h-.1c-17-.3-31.8-8.9-39.4-23.1a38.3 38.3 0 0 1-4.7-22.2z"/><path fill="#609fe6" d="M130.2 16.6a2.3 2.3 0 0 1 1.8.8l72.8 105.5 27.6 37.2a8.7 8.7 0 0 1 .1 10.4l-46 63.6c-2.3 3.2-6.6 5.2-11.3 5.2H81.9c-4.6-.1-8.8-2-11.2-5.2l-47.1-63.5a8.7 8.7 0 0 1-.1-10.4l29-40.1 17-23.5a8.6 8.6 0 0 1 1.8-2l57.1-77.2a2.3 2.3 0 0 1 1.8-.8m.2-16.4c-8-.1-15.3 3-19.6 8.3l-.2.3-.2.2-56.1 76a22.8 22.8 0 0 0-2.9 3.4l-17 23.5L5.5 152a22.1 22.1 0 0 0 .2 26.8l47.1 63.6c6 8.1 17.1 13.2 28.9 13.4h93.6c12.1 0 23.3-5.1 29.3-13.4l45.9-63.6a22.2 22.2 0 0 0-.2-26.9L222.9 115 150.2 9.6l-.2-.2-.2-.3C145.7 3.6 138.4.3 130.4.2z"/><path fill="#c4a44d" d="M127.5 178.9c-19.4-.3-36.1-10.2-44.8-26.4a44.3 44.3 0 0 1-5.4-25.7 45.9 45.9 0 0 1 7.1-20.2l38.4-60.4a7.7 7.7 0 0 1 6.7-3.6 7.5 7.5 0 0 1 6.6 3.8l36.6 61.6a46.4 46.4 0 0 1 6.5 21.2 45.3 45.3 0 0 1-6.2 24.7c-9.2 15.9-26.2 25.2-45.5 25zM129.3 59l-34.5 54.2a33 33 0 0 0-5.2 14.8 31.9 31.9 0 0 0 3.9 18.7c6.6 12.2 19.3 19.6 34.1 19.8s27.8-6.8 34.7-18.7a32.5 32.5 0 0 0 4.6-18 34.6 34.6 0 0 0-4.8-15.6zm3.9-6.2zm-7.7-.1z"/></symbol><symbol id="full-star" viewBox="0 0 24 24"><path d="M12 6.76l1.379 4.246h4.465l-3.612 2.625 1.379 4.246L12 15.252l-3.612 2.625 1.379-4.246-3.612-2.625h4.465zm0-6.472L9.167 9.006H0l7.416 5.389-2.833 8.718L12 17.725l7.416 5.388-2.833-8.718L24 9.006h-9.167L12 .288z"/></symbol><symbol id="card" viewBox="0 0 24 24"><path d="M22 4H2a2 2 0 0 0-2 2v12a2 2 0 0 0 2 2h20a2 2 0 0 0 2-2V6a2 2 0 0 0-2-2zm0 13.5a.5.5 0 0 1-.5.5h-19a.5.5 0 0 1-.5-.5V11h20zM22 8H2V6.5a.5.5 0 0 1 .5-.5h19a.5.5 0 0 1 .5.5zm-9 6H4v-1h9zm-3 2H4v-1h6zm10-2h-3v-1h3z"/></symbol><symbol id="account" viewBox="0 0 24 24"><path d="M19 7.001A7 7 0 1 1 4.999 7 7 7 0 0 1 19 7zm-1.598 7.18A8.937 8.937 0 0 1 12 16.001a8.953 8.953 0 0 1-5.407-1.822C2.521 15.972 0 21.555 0 24h24c0-2.423-2.6-8.006-6.598-9.819z"/></symbol><symbol id="cart" viewBox="0 0 24 24"><path d="M10 19.5a1.5 1.5 0 1 1-3 0 1.5 1.5 0 0 1 3 0zm3.5-1.5a1.5 1.5 0 1 0 0 3 1.5 1.5 0 0 0 0-3zm1.336-5l1.977-7H0l2.938 7zm4.969-10l-3.432 12H3.776l.839 2h13.239l3.474-12h1.929L24 3z"/></symbol><symbol id="twitter" viewBox="0 0 24 24"><path d="M19 0H5a5 5 0 0 0-5 5v14a5 5 0 0 0 5 5h14a5 5 0 0 0 5-5V5a5 5 0 0 0-5-5zm-.139 9.237c.209 4.617-3.234 9.765-9.33 9.765a9.286 9.286 0 0 1-5.032-1.475 6.605 6.605 0 0 0 4.86-1.359 3.285 3.285 0 0 1-3.066-2.28 3.3 3.3 0 0 0 1.482-.056c-1.579-.317-2.668-1.739-2.633-3.26.442.246.949.394 1.486.411A3.289 3.289 0 0 1 5.612 6.6a9.32 9.32 0 0 0 6.766 3.43 3.286 3.286 0 0 1 5.594-2.993 6.583 6.583 0 0 0 2.086-.796 3.296 3.296 0 0 1-1.443 1.816A6.578 6.578 0 0 0 20.5 7.54a6.66 6.66 0 0 1-1.639 1.697z"/></symbol><symbol id="facebook" viewBox="0 0 24 24"><path d="M22.675 0H1.325C.593 0 0 .593 0 1.325v21.351C0 23.407.593 24 1.325 24H12.82v-9.294H9.692v-3.622h3.128V8.413c0-3.1 1.893-4.788 4.659-4.788 1.325 0 2.463.099 2.795.143v3.24l-1.918.001c-1.504 0-1.795.715-1.795 1.763v2.313h3.587l-.467 3.622h-3.12V24h6.116c.73 0 1.323-.593 1.323-1.325V1.325C24 .593 23.407 0 22.675 0z"/></symbol><symbol id="half-star" viewBox="0 0 24 24"><path d="M12 5.173l2.335 4.817 5.305.732-3.861 3.71.942 5.27L12 17.178zm0-4.586L8.332 8.155 0 9.306l6.064 5.828-1.48 8.279L12 19.446l7.416 3.966-1.48-8.279L24 9.306l-8.332-1.15L12 .587z"/></symbol><symbol id="insta" viewBox="0 0 24 24"><path fill-rule="evenodd" d="M21.231 0H2.769A2.77 2.77 0 0 0 0 2.769v18.46A2.77 2.77 0 0 0 2.769 24h18.463A2.769 2.769 0 0 0 24 21.229V2.769A2.769 2.769 0 0 0 21.231 0zM12 7.385a4.615 4.615 0 1 1 .002 9.23A4.615 4.615 0 0 1 12 7.385zm9 12.693a.923.923 0 0 1-.924.922H3.924A.923.923 0 0 1 3 20.078V10h1.897a7.56 7.56 0 0 0-.2.971c-.05.337-.081.679-.081 1.029a7.384 7.384 0 1 0 14.768 0c0-.35-.031-.692-.081-1.028a7.56 7.56 0 0 0-.2-.971H21zm0-13.98a.924.924 0 0 1-.924.923h-2.174a.923.923 0 0 1-.923-.923V3.923c0-.51.412-.923.923-.923h2.174c.511 0 .924.413.924.923z" clip-rule="evenodd"/></symbol><symbol id="magnifier" viewBox="0 0 24 24"><path d="M23.809 21.646l-6.205-6.205a9.68 9.68 0 0 0 1.857-5.711C19.461 4.365 15.096 0 9.73 0 4.365 0 0 4.365 0 9.73c0 5.366 4.365 9.73 9.73 9.73a9.678 9.678 0 0 0 5.487-1.698L21.455 24l2.354-2.354zM2.854 9.73c0-3.792 3.085-6.877 6.877-6.877s6.877 3.085 6.877 6.877-3.085 6.877-6.877 6.877A6.884 6.884 0 0 1 2.854 9.73z"/></symbol><symbol id="merch-square" viewBox="0 0 436 436"><path fill="#0f0000" stroke="#4d4747" stroke-miterlimit="10" stroke-width="9" d="M4.6 5h426v426H4.6z"/><path fill="#fff" d="M139.1 94.6v-40h6.7L158 82.8h.2l12.2-28.2h6.7v40h-6V67h-.3l-10.4 23.4h-4.7L145.3 67h-.2v27.6zm45.4-14.1v-3.1c0-8.7 5.2-14.3 13.3-14.3s13.3 5.8 13.3 14.6v2.9h-20.2v.7c0 5.3 2.9 8.7 7.3 8.7s5.5-1.6 6.3-4.3h6.2c-.9 5-5 9.4-12.6 9.4s-13.6-5.4-13.6-14.6zm20.2-4.4c0-4.4-2.7-7.8-6.8-7.8s-7 3.4-7 7.8h13.8zM218 63.7h6.5v4h.2a7.7 7.7 0 0 1 7.4-4.5l2.2.2v5.7l-2.8-.2c-5.2 0-6.9 3.2-6.9 7.4v18.3H218zm20.1 13.9c0-8.5 5-14.5 13.4-14.5s12.1 4.9 12.3 10.3h-6.1a6 6 0 0 0-5.8-4.9c-4.6 0-7.2 3.5-7.2 9.2v2.7c0 5.7 2.8 9.4 7.2 9.4s5.5-2.1 6-4.5h6.1c-.8 6.2-5.3 9.8-12.5 9.8s-13.4-6-13.4-14.7zm32.4-25.1h6.5V68h.3c1-2.1 3.8-4.8 8.9-4.8s10.9 4 10.9 11.5v19.9h-6.5V76c0-4.9-2.9-7.2-6.8-7.2s-6.8 3.3-6.8 7.4v18.4h-6.5z"/><path fill="#161616" d="M39 164.6v41c.1 19.1 8.6 37.2 23 48.7l112.8 89.6a19.9 19.9 0 0 0 12.6 4.4h60.9a19.9 19.9 0 0 0 12.6-4.4l112.5-90c14.4-11.5 22.9-29.6 22.9-48.7v-41z"/><path fill="#9a9ea2" d="M187.3 352.8a24.6 24.6 0 0 1-15.3-5.4L59.2 257.8c-15.4-12.3-24.6-31.8-24.7-52.2v-45.5l366.2-.5v45.5c0 20.4-9.2 39.9-24.6 52.3l-112.4 89.9a24.7 24.7 0 0 1-15.4 5.4h-61zM43.5 169.1v36.5c.1 17.7 8 34.6 21.3 45.1l112.8 89.6a15.2 15.2 0 0 0 9.7 3.5h61a15.5 15.5 0 0 0 9.8-3.5l112.5-89.9c13.3-10.6 21.2-27.5 21.2-45.2v-36.6z"/><path fill="none" stroke="#494949" stroke-miterlimit="10" stroke-width="4" d="M247.5 341.2l2-.2a106.4 106.4 0 0 1-5.8-34.6c-.1-56.5 43.9-102.5 98.3-102.5a94.4 94.4 0 0 1 47.6 12.7m-343.9 0a93 93 0 0 1 46.4-12.4c53.8-.1 97.5 45.6 97.6 102.1a108.9 108.9 0 0 1-5.6 34.5l2.8.2"/></symbol><symbol id="milk-square" viewBox="0 0 436 436"><g style="isolation:isolate"><g id="Layer_1"><path fill="#0053a2" stroke="#36d6ff" stroke-miterlimit="10" stroke-width="9" d="M5 5h426v426H5z"/><path fill="#cbdff7" d="M217.7 361.4c-60.4 0-98-61.5-67.8-110.5l66-106.9a2.4 2.4 0 0 1 4.2 0l65.6 107.1c30.1 49.1-7.7 110.4-68 110.3z"/><path fill="#96b9ed" d="M217.8 373.3h-.2c-33.5-.1-64-17.6-79.6-45.7-14.7-26.2-13.9-57.2 1.9-82.9L216 121.4a2.4 2.4 0 0 1 4.1 0L295.8 245c15.7 25.7 16.4 56.7 1.7 82.9-15.8 28-46.3 45.4-79.7 45.4zm2.2-206.8a2.4 2.4 0 0 0-4.1 0L160 257.1c-11.5 18.6-12 40.1-1.4 59 11.7 21 33.7 33.5 59.1 33.5h.1c25.3 0 47.4-12.4 59.1-33.3 10.6-18.9 10.1-40.4-1.2-59z"/><g style="mix-blend-mode:color-burn"><path fill="#dbf8ff" d="M217.7 361.4c-60.4 0-98-61.5-67.8-110.5l66-106.9a2.4 2.4 0 0 1 4.2 0l65.6 107.1c30.1 49.1-7.7 110.4-68 110.3z"/><path fill="#36d6ff" d="M217.8 373.3h-.2c-33.5-.1-64-17.6-79.6-45.7-14.7-26.2-13.9-57.2 1.9-82.9L216 121.4a2.4 2.4 0 0 1 4.1 0L295.8 245c15.7 25.7 16.4 56.7 1.7 82.9-15.8 28-46.3 45.4-79.7 45.4zm2.2-206.8a2.4 2.4 0 0 0-4.1 0L160 257.1c-11.5 18.6-12 40.1-1.4 59 11.7 21 33.7 33.5 59.1 33.5h.1c25.3 0 47.4-12.4 59.1-33.3 10.6-18.9 10.1-40.4-1.2-59z"/></g><path fill="#fff" d="M168.2 95.1v-40h6.7l12.2 28.1h.2l12.3-28.1h6.6v40h-6V67.4h-.3l-10.3 23.4h-4.8l-10.3-23.4h-.3v27.7zm50.3-42.3a3.7 3.7 0 0 1 3.8 3.7 3.7 3.7 0 0 1-3.8 3.7 3.7 3.7 0 0 1-3.9-3.7 3.8 3.8 0 0 1 3.9-3.7zm-3.3 11.3h6.5v31h-6.5zM230.5 53h6.5v42.1h-6.5zM252 95.1h-6.5V53h6.5v24.2h.3l11.1-13.1h7.7l-11.7 13.4 12.5 17.6h-7.8l-9.6-13.7-2.5 2.8z"/></g></g></symbol><symbol id="honey-square" viewBox="0 0 436 436"><path fill="#533a02" stroke="#fabc28" stroke-miterlimit="10" stroke-width="9" d="M5.1 4.4h426v426H5.1z"/><path fill="#f2c53e" d="M341.2 255.3l-59.3 102.3a5.6 5.6 0 0 1-4.8 2.8l-118.2-.2a5.5 5.5 0 0 1-4.8-2.7l-59-102.6a5.4 5.4 0 0 1 0-5.5l59.3-102.3a5.6 5.6 0 0 1 4.8-2.8l118.2.2a5.4 5.4 0 0 1 4.8 2.8l59 102.5a5.4 5.4 0 0 1 0 5.5z"/><path fill="#c4a44d" d="M143.3 364.7l-59.9-104a17.2 17.2 0 0 1 0-17l60.2-103.9a17 17 0 0 1 14.7-8.5l120 .2A17 17 0 0 1 293 140l59.9 104.1a17 17 0 0 1 0 16.9l-60.2 103.9a16.8 16.8 0 0 1-14.7 8.5l-120-.2a16.8 16.8 0 0 1-14.7-8.5zm-29.9-104l44.9 78a17.1 17.1 0 0 0 14.7 8.6h90a17.1 17.1 0 0 0 14.8-8.5l45.1-77.8a17.2 17.2 0 0 0 0-17L278 166a16.8 16.8 0 0 0-14.7-8.5l-90-.2a17.1 17.1 0 0 0-14.8 8.5l-45.1 77.9a17.2 17.2 0 0 0 0 17z"/><path fill="#fff" d="M159.5 95.2V77.5h-18.3v17.7h-6.6v-40h6.6v16.6h18.3V55.2h6.7v40zm41.6-16.8v2.5c0 8.7-4.8 14.8-13.7 14.8s-13.8-6.1-13.8-14.8v-2.5c0-8.4 4.9-14.7 13.8-14.7s13.7 6.3 13.7 14.7zm-21 .1v2.4c0 5.5 2.4 9.6 7.3 9.6s7.2-4.1 7.2-9.6v-2.4c0-5.7-2.4-9.6-7.2-9.6s-7.3 4-7.3 9.6zm28-14.3h6.4v4.3h.3c1-2 3.9-4.8 9-4.8s10.8 4 10.8 11.6v19.9h-6.5V76.6c0-5-2.8-7.2-6.7-7.2s-6.8 3.3-6.8 7.3v18.5h-6.5zm33.1 16.9v-3.2c0-8.6 5.2-14.2 13.3-14.2s13.3 5.8 13.3 14.5v3h-20.2v.7c0 5.2 2.8 8.7 7.3 8.7s5.5-1.7 6.3-4.3h6.2c-.9 5-5 9.4-12.6 9.4s-13.6-5.5-13.6-14.6zm20.2-4.5c0-4.4-2.7-7.9-6.9-7.9s-6.9 3.5-6.9 7.9zm27.9 18.2l-.8 2.1c-2.5 6.9-6 9.1-12 9.1l-3.4-.2v-5l2.3.2c3.5 0 5.2-1.2 5.9-4.2l.4-1.4-11.1-31.2h7.2l7.4 24.6h.3l7.5-24.6h6.8c-1.3 4.3-10.5 30.5-10.5 30.6z"/></symbol><symbol id="error" viewBox="0 0 24 24"><path fill="#a31f55" d="M17 0H7L0 7v10l7 7h10l7-7V7l-7-7zm-5 19.2c-.7 0-1.2-.6-1.2-1.2s.6-1.2 1.2-1.2 1.2.6 1.2 1.2-.5 1.2-1.2 1.2zm.5-4.2h-1l-1-10h3z"/></symbol></svg>