<svg id="Layer_1" data-name="Layer 1" xmlns="http://www.w3.org/2000/svg" width="436" height="436" viewBox="0 0 436 436"><title>merch-square</title><rect x="4.6" y="5" width="426" height="426" fill="#0f0000" stroke="#4d4747" stroke-miterlimit="10" stroke-width="9"/><path d="M139.1,94.6v-40h6.7L158,82.8h.2l12.2-28.2h6.7v40h-6V67h-.3L160.4,90.4h-4.7L145.3,67h-.2V94.6Z" fill="#fff"/><path d="M184.5,80.5V77.4c0-8.7,5.2-14.3,13.3-14.3s13.3,5.8,13.3,14.6v2.9H190.9v.7c0,5.3,2.9,8.7,7.3,8.7s5.5-1.6,6.3-4.3h6.2c-.9,5-5,9.4-12.6,9.4S184.5,89.7,184.5,80.5Zm20.2-4.4h0c0-4.4-2.7-7.8-6.8-7.8s-7,3.4-7,7.8h13.8Z" fill="#fff"/><path d="M218,63.7h6.5v4h.2a7.7,7.7,0,0,1,7.4-4.5l2.2.2v5.7l-2.8-.2c-5.2,0-6.9,3.2-6.9,7.4V94.6H218Z" fill="#fff"/><path d="M238.1,77.6c0-8.5,5-14.5,13.4-14.5s12.1,4.9,12.3,10.3h-6.1a6,6,0,0,0-5.8-4.9c-4.6,0-7.2,3.5-7.2,9.2v2.7c0,5.7,2.8,9.4,7.2,9.4s5.5-2.1,6-4.5H264c-.8,6.2-5.3,9.8-12.5,9.8s-13.4-6-13.4-14.7Z" fill="#fff"/><path d="M270.5,52.5H277V68h.3c1-2.1,3.8-4.8,8.9-4.8s10.9,4,10.9,11.5V94.6h-6.5V76c0-4.9-2.9-7.2-6.8-7.2s-6.8,3.3-6.8,7.4V94.6h-6.5Z" fill="#fff"/><path d="M39,164.6v41c.1,19.1,8.6,37.2,23,48.7l112.8,89.6a19.9,19.9,0,0,0,12.6,4.4h60.9a19.9,19.9,0,0,0,12.6-4.4l112.5-90c14.4-11.5,22.9-29.6,22.9-48.7v-41Z" fill="#161616"/><path d="M187.3,352.8a24.6,24.6,0,0,1-15.3-5.4L59.2,257.8C43.8,245.5,34.6,226,34.5,205.6V160.1l366.2-.5v45.5c0,20.4-9.2,39.9-24.6,52.3L263.7,347.3a24.7,24.7,0,0,1-15.4,5.4h-61ZM43.5,169.1v36.5c.1,17.7,8,34.6,21.3,45.1l112.8,89.6a15.2,15.2,0,0,0,9.7,3.5h61a15.5,15.5,0,0,0,9.8-3.5l112.5-89.9c13.3-10.6,21.2-27.5,21.2-45.2V168.6Z" fill="#9a9ea2"/><path d="M247.5,341.2l2-.2a106.4,106.4,0,0,1-5.8-34.6c-.1-56.5,43.9-102.5,98.3-102.5a94.4,94.4,0,0,1,47.6,12.7" fill="none" stroke="#494949" stroke-miterlimit="10" stroke-width="4"/><path d="M45.7,216.6a93,93,0,0,1,46.4-12.4c53.8-.1,97.5,45.6,97.6,102.1a108.9,108.9,0,0,1-5.6,34.5l2.8.2" fill="none" stroke="#494949" stroke-miterlimit="10" stroke-width="4"/></svg>