<svg xmlns="http://www.w3.org/2000/svg" width="436" height="436" viewBox="0 0 436 436"><g style="isolation:isolate"><g id="Layer_1"><path fill="#0053a2" stroke="#36d6ff" stroke-miterlimit="10" stroke-width="9" d="M5 5h426v426H5z"/><path fill="#cbdff7" d="M217.7 361.4c-60.4 0-98-61.5-67.8-110.5l66-106.9a2.4 2.4 0 0 1 4.2 0l65.6 107.1c30.1 49.1-7.7 110.4-68 110.3z"/><path fill="#96b9ed" d="M217.8 373.3h-.2c-33.5-.1-64-17.6-79.6-45.7-14.7-26.2-13.9-57.2 1.9-82.9L216 121.4a2.4 2.4 0 0 1 4.1 0L295.8 245c15.7 25.7 16.4 56.7 1.7 82.9-15.8 28-46.3 45.4-79.7 45.4zm2.2-206.8a2.4 2.4 0 0 0-4.1 0L160 257.1c-11.5 18.6-12 40.1-1.4 59 11.7 21 33.7 33.5 59.1 33.5h.1c25.3 0 47.4-12.4 59.1-33.3 10.6-18.9 10.1-40.4-1.2-59z"/><g style="mix-blend-mode:color-burn"><path fill="#dbf8ff" d="M217.7 361.4c-60.4 0-98-61.5-67.8-110.5l66-106.9a2.4 2.4 0 0 1 4.2 0l65.6 107.1c30.1 49.1-7.7 110.4-68 110.3z"/><path fill="#36d6ff" d="M217.8 373.3h-.2c-33.5-.1-64-17.6-79.6-45.7-14.7-26.2-13.9-57.2 1.9-82.9L216 121.4a2.4 2.4 0 0 1 4.1 0L295.8 245c15.7 25.7 16.4 56.7 1.7 82.9-15.8 28-46.3 45.4-79.7 45.4zm2.2-206.8a2.4 2.4 0 0 0-4.1 0L160 257.1c-11.5 18.6-12 40.1-1.4 59 11.7 21 33.7 33.5 59.1 33.5h.1c25.3 0 47.4-12.4 59.1-33.3 10.6-18.9 10.1-40.4-1.2-59z"/></g><path fill="#fff" d="M168.2 95.1v-40h6.7l12.2 28.1h.2l12.3-28.1h6.6v40h-6V67.4h-.3l-10.3 23.4h-4.8l-10.3-23.4h-.3v27.7zm50.3-42.3a3.7 3.7 0 0 1 3.8 3.7 3.7 3.7 0 0 1-3.8 3.7 3.7 3.7 0 0 1-3.9-3.7 3.8 3.8 0 0 1 3.9-3.7zm-3.3 11.3h6.5v31h-6.5zM230.5 53h6.5v42.1h-6.5zM252 95.1h-6.5V53h6.5v24.2h.3l11.1-13.1h7.7l-11.7 13.4 12.5 17.6h-7.8l-9.6-13.7-2.5 2.8z"/></g></g></svg>