<svg xmlns="http://www.w3.org/2000/svg" width="436" height="436" viewBox="0 0 436 436"><title>milk-square</title><g style="isolation:isolate"><g id="Layer_1" data-name="Layer 1"><rect x="5" y="5" width="426" height="426" fill="#0053a2" stroke="#36d6ff" stroke-miterlimit="10" stroke-width="9"/><path d="M217.7,361.4h0c-60.4,0-98-61.5-67.8-110.5l66-106.9a2.4,2.4,0,0,1,4.2,0l65.6,107.1C315.8,300.2,278,361.5,217.7,361.4Z" fill="#cbdff7"/><path d="M217.8,373.3h-.2c-33.5-.1-64-17.6-79.6-45.7-14.7-26.2-13.9-57.2,1.9-82.9L216,121.4a2.4,2.4,0,0,1,4.1,0L295.8,245c15.7,25.7,16.4,56.7,1.7,82.9C281.7,355.9,251.2,373.3,217.8,373.3ZM220,166.5a2.4,2.4,0,0,0-4.1,0L160,257.1c-11.5,18.6-12,40.1-1.4,59,11.7,21,33.7,33.5,59.1,33.5h.1c25.3,0,47.4-12.4,59.1-33.3,10.6-18.9,10.1-40.4-1.2-59Z" fill="#96b9ed"/><g style="mix-blend-mode:color-burn"><path d="M217.7,361.4h0c-60.4,0-98-61.5-67.8-110.5l66-106.9a2.4,2.4,0,0,1,4.2,0l65.6,107.1C315.8,300.2,278,361.5,217.7,361.4Z" fill="#dbf8ff"/><path d="M217.8,373.3h-.2c-33.5-.1-64-17.6-79.6-45.7-14.7-26.2-13.9-57.2,1.9-82.9L216,121.4a2.4,2.4,0,0,1,4.1,0L295.8,245c15.7,25.7,16.4,56.7,1.7,82.9C281.7,355.9,251.2,373.3,217.8,373.3ZM220,166.5a2.4,2.4,0,0,0-4.1,0L160,257.1c-11.5,18.6-12,40.1-1.4,59,11.7,21,33.7,33.5,59.1,33.5h.1c25.3,0,47.4-12.4,59.1-33.3,10.6-18.9,10.1-40.4-1.2-59Z" fill="#36d6ff"/></g><path d="M168.2,95.1v-40h6.7l12.2,28.1h.2l12.3-28.1h6.6v40h-6V67.4h-.3L189.6,90.8h-4.8L174.5,67.4h-.3V95.1Z" fill="#fff"/><path d="M218.5,52.8a3.7,3.7,0,0,1,3.8,3.7,3.7,3.7,0,0,1-3.8,3.7,3.7,3.7,0,0,1-3.9-3.7A3.8,3.8,0,0,1,218.5,52.8Zm-3.3,11.3h6.5v31h-6.5Z" fill="#fff"/><path d="M230.5,53H237V95.1h-6.5Z" fill="#fff"/><path d="M252,95.1h-6.5V53H252V77.2h.3l11.1-13.1h7.7L259.4,77.5l12.5,17.6h-7.8l-9.6-13.7L252,84.2Z" fill="#fff"/></g></g></svg>