<svg id="bw" xmlns="http://www.w3.org/2000/svg" width="16" height="16" viewBox="0 0 16 16"><title>16</title><path d="M14.5,10,12.8,7.7,8.2,1.1c0-.1-.1-.1-.2,0L4.4,5.9H4.3l-1,1.5L1.5,10a.4.4,0,0,0,0,.6l2.9,4a.9.9,0,0,0,.7.3h5.8a.8.8,0,0,0,.7-.3l2.9-4A.4.4,0,0,0,14.5,10ZM5.1,7.8a3,3,0,0,1,.4-1.1l.7-1L7.9,3c.1-.1.2-.1.2,0L9.8,5.7l.7,1.1A2.7,2.7,0,0,1,10.8,8a3.1,3.1,0,0,1-.3,1.3,2.9,2.9,0,0,1-2.6,1.4h0A3,3,0,0,1,5.4,9.2a1.7,1.7,0,0,1-.3-1.4Z" fill="#fff"/><path d="M5.2,7.9a2.1,2.1,0,0,1,.4-1.1l.6-1.1L8,3h.2L9.8,5.7l.6,1.2A1.5,1.5,0,0,1,10.8,8a3.5,3.5,0,0,1-.3,1.4A3,3,0,0,1,8,10.7H7.9A2.7,2.7,0,0,1,5.5,9.3a1.8,1.8,0,0,1-.3-1.4Z" fill="#d5d6d7"/><path d="M8.1,1c.1,0,.1,0,.1.1l4.6,6.6L14.5,10a.4.4,0,0,1,0,.6l-2.9,4a.8.8,0,0,1-.7.3H5.1a.9.9,0,0,1-.7-.3l-2.9-4a.4.4,0,0,1,0-.6L3.3,7.5,4.3,6h.1L8,1.1A.1.1,0,0,1,8.1,1m0-1A1.7,1.7,0,0,0,6.9.5h0L3.4,5.3l-.2.2L2.1,7,.3,9.5a1.7,1.7,0,0,0,0,1.7l3,3.9a2.4,2.4,0,0,0,1.8.9h5.8a2.5,2.5,0,0,0,1.9-.9l2.8-4a1.2,1.2,0,0,0,0-1.6L13.9,7.2,9.4.6H9.3A1.5,1.5,0,0,0,8.1,0Z" fill="#231f20"/><path d="M7.9,11.1A3.2,3.2,0,0,1,5.1,9.5a4.7,4.7,0,0,1-.3-1.7,5.6,5.6,0,0,1,.4-1.2L7.7,2.8l.4-.2h0l.4.2,2.3,3.9A2.8,2.8,0,0,1,11.2,8a2.6,2.6,0,0,1-.4,1.5A3.2,3.2,0,0,1,7.9,11.1Zm.2-7.5L5.9,7a1.6,1.6,0,0,0-.3.9h0a1.7,1.7,0,0,0,.2,1.2A2.3,2.3,0,0,0,8,10.3a2.4,2.4,0,0,0,2.1-1.1A2.7,2.7,0,0,0,10.4,8a1.6,1.6,0,0,0-.3-.9Zm.2-.4Zm-.5,0Z" fill="#231f20"/></svg>