<svg id="bw" xmlns="http://www.w3.org/2000/svg" width="32" height="32" viewBox="0 0 32 32"><title>32</title><path d="M29,20l-3.4-4.6L16.5,2.2a.2.2,0,0,0-.4,0L8.9,11.8l-.2.3L6.6,15,2.9,20A1.2,1.2,0,0,0,3,21.3l5.8,8a1.9,1.9,0,0,0,1.5.6H21.9a1.7,1.7,0,0,0,1.4-.6l5.8-8A1.2,1.2,0,0,0,29,20ZM10.2,15.7a4.9,4.9,0,0,1,.8-2.2l1.3-2.1L15.9,6a.2.2,0,0,1,.4,0l3.3,5.4,1.3,2.3a4.9,4.9,0,0,1,.8,2.3,4.8,4.8,0,0,1-.7,2.6,5.9,5.9,0,0,1-5.1,2.8h-.1a5.9,5.9,0,0,1-5-2.9,4.8,4.8,0,0,1-.6-2.8Z" fill="#fff"/><path d="M10.4,15.7a4.6,4.6,0,0,1,.8-2.1l1.3-2.1L16,6h.3l3.2,5.4,1.4,2.3a6.2,6.2,0,0,1,.7,2.3,5.4,5.4,0,0,1-.7,2.7,5.7,5.7,0,0,1-5,2.7h0A5.4,5.4,0,0,1,11,18.5a4.6,4.6,0,0,1-.6-2.8Z" fill="#d5d6d7"/><path d="M16.3,2.1h.2l9.1,13.2L29,20a1.2,1.2,0,0,1,.1,1.3l-5.8,8a1.7,1.7,0,0,1-1.4.6H10.2a1.8,1.8,0,0,1-1.4-.6L3,21.3A1.2,1.2,0,0,1,2.9,20l3.7-5,2.1-2.9.2-.3,7.2-9.6c0-.1.1-.1.2-.1m0-2.1a2.9,2.9,0,0,0-2.4,1.1h-.1l-7,9.5c-.1.2-.3.3-.4.4L4.3,14,.7,19a2.7,2.7,0,0,0,0,3.4l5.9,7.9A4.5,4.5,0,0,0,10.2,32H21.9a4.8,4.8,0,0,0,3.7-1.7l5.7-8a2.6,2.6,0,0,0,0-3.3l-3.4-4.6L18.8,1.2h-.1A3.2,3.2,0,0,0,16.3,0Z" fill="#231f20"/><path d="M15.9,22.2a6.6,6.6,0,0,1-5.6-3.3,5.2,5.2,0,0,1-.7-3.2,6.2,6.2,0,0,1,.9-2.6l4.8-7.5a1,1,0,0,1,.8-.5h0a1.1,1.1,0,0,1,.9.5l4.5,7.7a6.6,6.6,0,0,1,.9,2.7,7.1,7.1,0,0,1-.8,3.1A6.5,6.5,0,0,1,15.9,22.2Zm.2-15L11.8,14a3.2,3.2,0,0,0-.6,1.8h0a4.1,4.1,0,0,0,.4,2.4,5,5,0,0,0,4.3,2.4,4.5,4.5,0,0,0,4.3-2.3,3.2,3.2,0,0,0,.6-2.3,3.5,3.5,0,0,0-.6-1.9Zm.5-.8Zm-1,0Z" fill="#231f20"/></svg>