<svg id="bw" xmlns="http://www.w3.org/2000/svg" width="64" height="64" viewBox="0 0 64 64"><title>64</title><path d="M58.1,40.3,51.2,31,33,4.7a.6.6,0,0,0-.9,0L17.8,24l-.4.5-4.3,5.9-7.2,10a2.1,2.1,0,0,0,0,2.6L17.7,58.9a3.6,3.6,0,0,0,2.8,1.3H43.8a3.3,3.3,0,0,0,2.8-1.3l11.5-16A2.1,2.1,0,0,0,58.1,40.3ZM20.4,31.7A8.7,8.7,0,0,1,22,27.4l2.7-4.2,7.1-10.9a.4.4,0,0,1,.7,0l6.6,10.8,2.8,4.6a9.5,9.5,0,0,1,1.4,4.6A9.3,9.3,0,0,1,42,37.6a11.7,11.7,0,0,1-10.3,5.5h0a11.7,11.7,0,0,1-10.1-5.8,9.4,9.4,0,0,1-1.2-5.6Z" fill="#fff"/><path d="M20.8,32a10.7,10.7,0,0,1,1.6-4.4L25,23.4l7-10.9c.1-.3.5-.3.7,0l6.4,10.9,2.7,4.5a9.8,9.8,0,0,1,1.4,4.6,9.3,9.3,0,0,1-1.3,5.3,11.1,11.1,0,0,1-10,5.5h-.1A11.1,11.1,0,0,1,22,37.5,9.2,9.2,0,0,1,20.8,32Z" fill="#d5d6d7"/><path d="M32.5,4.5l.5.2L51.2,31l6.9,9.3a2.1,2.1,0,0,1,0,2.6l-11.5,16a3.3,3.3,0,0,1-2.8,1.3H20.5a3.4,3.4,0,0,1-2.8-1.3L5.9,43a2.1,2.1,0,0,1,0-2.6l7.2-10,4.3-5.9.4-.5L32.1,4.7a.4.4,0,0,1,.4-.2M32.6.4a6.1,6.1,0,0,0-4.9,2.1h-.1l-14,19-.8.8L8.6,28.3l-7.2,10a5.5,5.5,0,0,0,0,6.7L13.2,60.9a9.2,9.2,0,0,0,7.2,3.4H43.8a9,9,0,0,0,7.4-3.4L62.6,45a5.6,5.6,0,0,0,0-6.7L55.7,29,37.5,2.7h-.1A5.8,5.8,0,0,0,32.6.4Z" fill="#231f20"/><path d="M31.8,44.8a12.6,12.6,0,0,1-11.2-6.5,11.6,11.6,0,0,1-1.3-6.5,11.2,11.2,0,0,1,1.8-5l9.6-15.1a1.8,1.8,0,0,1,1.6-.9h0a2,2,0,0,1,1.7.9l9.1,15.4a11.8,11.8,0,0,1,1.7,5.3,11.3,11.3,0,0,1-1.6,6.2A12.5,12.5,0,0,1,31.8,44.8Zm.5-29.9L23.7,28.4a7.5,7.5,0,0,0-1.3,3.7h0a7.8,7.8,0,0,0,.9,4.7,10,10,0,0,0,8.6,5,9.6,9.6,0,0,0,8.6-4.7,8.5,8.5,0,0,0,1.2-4.5,8.9,8.9,0,0,0-1.2-3.9Zm1-1.6Zm-2,0Z" fill="#231f20"/></svg>